<?xml version="1.0" encoding="utf-8"?>
<!-- Generator: Adobe Illustrator 24.0.0, SVG Export Plug-In . SVG Version: 6.00 Build 0)  -->
<svg version="1.1" id="Layer_1" xmlns="http://www.w3.org/2000/svg" xmlns:xlink="http://www.w3.org/1999/xlink" x="0px" y="0px"
	 viewBox="0 0 36 36" style="enable-background:new 0 0 36 36;" xml:space="preserve">
<style type="text/css">
	.st0{fill:#FFFFFF;}
</style>
<g>
	<path class="st0" d="M26.9,0.6H9.2c-4.9,0-8.8,4-8.8,8.9v17.7c0,4.9,4,8.8,8.8,8.8h17.7c4.9,0,8.9-4,8.9-8.9V9.4
		C35.7,4.5,31.8,0.6,26.9,0.6z M22.8,18.3h-3.3v11h-4.2v-11H13v-4.5h2v-1.9c0-1.8,0.9-4.6,4.7-4.6h3.5V11h-2.4
		c-0.4,0-0.9,0.3-0.9,1.1v1.7h3.5L22.8,18.3z"/>
</g>
</svg>
