<svg width="17" height="16" viewBox="0 0 17 16" fill="none" xmlns="http://www.w3.org/2000/svg">
<path d="M10.1484 9.64844H6.85194C5.86068 9.64844 5.0542 10.4051 5.0542 11.3351V12.549H7.98566V14.6546H6.69162V15.6214H10.3087V14.6546H9.01621V12.549H11.9461V11.3351C11.9461 10.4051 11.1396 9.64844 10.1484 9.64844Z" fill="black"/>
<path d="M3.81856 3.16154H13.1814V14.6371H12.1521V15.6216H15.2068V14.6371H14.1775V11.2462H14.9522V10.2617H14.1775V9.27698H14.9522V8.29242H14.1775V7.30774H14.9522V6.32318H14.1775V5.33853H16.1698V3.16154H17V2.17698H16.1698V0H13.1814V2.17698H3.81856V0H0.830178V2.17698H0V3.16154H0.830178V5.33853H2.82246V6.32318H2.04784V7.30774H2.82246V8.29242H2.04784V9.27698H2.82246V10.2617H2.04784V11.2462H2.82246V14.6371H1.79317V15.6216H4.84789V14.6371H3.81856V3.16154Z" fill="black"/>
</svg>
