<svg width="15" height="15" viewBox="0 0 15 15" fill="none" xmlns="http://www.w3.org/2000/svg">
<path d="M14.6664 12.4223C14.6664 11.4746 13.8954 10.7036 12.9477 10.7036C12.9262 10.7036 12.8994 10.7036 1.19296 11.5665C1.19291 11.5665 1.19282 11.5665 1.19276 11.5665C0.523924 11.6161 0 12.1808 0 12.852C0 13.5628 0.578264 14.1411 1.28904 14.1411H1.77601V14.5707C1.77601 14.808 1.96839 15.0004 2.20569 15.0004C2.44299 15.0004 2.63537 14.808 2.63537 14.5707V14.1411H12.1456V14.5707C12.1456 14.808 12.338 15.0004 12.5753 15.0004C12.8126 15.0004 13.005 14.808 13.005 14.5707V14.1396C13.9262 14.1092 14.6664 13.3508 14.6664 12.4223Z" fill="black"/>
<path d="M10.0759 4.66567L12.654 3.80631C12.7833 3.76323 12.8844 3.66139 12.9266 3.53189L13.786 0.896515C13.8596 0.670904 13.7363 0.428364 13.5107 0.354803C13.2851 0.281184 13.0426 0.404474 12.969 0.630085L12.1768 3.05953L9.80417 3.8504C9.57905 3.92545 9.45739 4.16879 9.53241 4.39391C9.60746 4.61907 9.8508 4.74069 10.0759 4.66567Z" fill="black"/>
<path d="M10.3696 5.47341V10.0286C12.8884 9.84384 12.9099 9.84384 12.9477 9.84384C13.0463 9.84384 13.1434 9.84928 13.2387 9.86045L12.6661 4.70801L10.3696 5.47341Z" fill="black"/>
</svg>
