<svg xmlns="http://www.w3.org/2000/svg" width="30.186" height="29.857" viewBox="0 0 30.186 29.857">
  <g id="icon" transform="translate(0.257 -0.071)">
    <path id="Path" d="M.113,5.737a.493.493,0,0,0,.39.185H8.361A6.164,6.164,0,0,1,11.379,3.68,3.61,3.61,0,0,1,9.678.668,6.888,6.888,0,0,0,.013,5.307.5.5,0,0,0,.113,5.737Z" transform="translate(1.758 19.444)" fill="none"/>
    <path id="Path-2" data-name="Path" d="M3.594,5.868l3.028-3a1.67,1.67,0,0,0,0-2.38,1.717,1.717,0,0,0-2.407,0l-.657.65L2.9.491a1.717,1.717,0,0,0-2.4,0,1.67,1.67,0,0,0,0,2.38L3.525,5.866l.034-.034Z" transform="translate(11.275 2.06)" fill="none"/>
    <path id="Path-3" data-name="Path" d="M1.9,3.764a1.9,1.9,0,0,0,1.9-1.882A1.9,1.9,0,0,0,0,1.882,1.9,1.9,0,0,0,1.9,3.764Z" transform="translate(13.192 18.187)" fill="none"/>
    <path id="Path-4" data-name="Path" d="M6.8,3.363a3.4,3.4,0,0,0-6.8,0,3.4,3.4,0,0,0,6.8,0Z" transform="translate(5.074 9.997)" fill="none"/>
    <path id="Path-5" data-name="Path" d="M3.018,5.424h7.341a.487.487,0,0,0,.388-.186.521.521,0,0,0,.1-.453A6.378,6.378,0,0,0,1.644.762,3.625,3.625,0,0,1,0,3.182,6.16,6.16,0,0,1,3.018,5.424Z" transform="translate(17.052 19.942)" fill="none"/>
    <path id="Path-6" data-name="Path" d="M3.121,6.174A3.108,3.108,0,0,0,6.242,3.087,3.121,3.121,0,0,0,0,3.087,3.108,3.108,0,0,0,3.121,6.174Z" transform="translate(18.595 11.133)" fill="none"/>
    <path id="Path-7" data-name="Path" d="M4.234,0A4.341,4.341,0,0,0,0,3.407H8.468A4.341,4.341,0,0,0,4.234,0Z" transform="translate(10.861 24.532)" fill="none"/>
    <path id="Shape" d="M19.571,21.421H10.619a1.554,1.554,0,0,1-1.175-.534,1.535,1.535,0,0,1-.361-1.246,5.749,5.749,0,0,1,.185-.794H2.262A2.257,2.257,0,0,1,.5,18.012a2.224,2.224,0,0,1-.445-1.9A8.435,8.435,0,0,1,2.3,12.039a8.746,8.746,0,0,1,4.01-2.314A5.121,5.121,0,0,1,3.317,5.1a5.158,5.158,0,0,1,10.316,0,5.122,5.122,0,0,1-2.984,4.621,8.568,8.568,0,0,1,1.207.409,3.672,3.672,0,0,1,6.682.456,8.036,8.036,0,0,1,.957-.333,4.808,4.808,0,0,1-2.657-4.291,4.88,4.88,0,0,1,9.759,0,4.805,4.805,0,0,1-2.659,4.291,8.077,8.077,0,0,1,5.666,5.8,2.248,2.248,0,0,1-2.191,2.794h-6.49a5.936,5.936,0,0,1,.185.794,1.538,1.538,0,0,1-.361,1.246A1.554,1.554,0,0,1,19.571,21.421Zm-4.477-5.146a4.328,4.328,0,0,0-4.234,3.406h8.467A4.328,4.328,0,0,0,15.095,16.275Zm6.621-4.59a6.407,6.407,0,0,0-3.02.762,3.627,3.627,0,0,1-1.643,2.419,6.2,6.2,0,0,1,3.018,2.242h7.341a.485.485,0,0,0,.388-.185.52.52,0,0,0,.1-.454A6.333,6.333,0,0,0,21.716,11.685Zm-13.243-.5a6.893,6.893,0,0,0-6.7,5.306.5.5,0,0,0,.491.616H10.12a6.2,6.2,0,0,1,3.018-2.242,3.606,3.606,0,0,1-1.7-3.011A6.847,6.847,0,0,0,8.474,11.186Zm6.621-1.257A1.882,1.882,0,1,0,17,11.812,1.895,1.895,0,0,0,15.095,9.929Zm6.621-7.053a3.087,3.087,0,1,0,3.121,3.087A3.108,3.108,0,0,0,21.716,2.876ZM8.474,1.74a3.363,3.363,0,1,0,3.4,3.362A3.385,3.385,0,0,0,8.474,1.74Z" transform="translate(0 8.257)" fill="#000000" stroke="#000000" stroke-miterlimit="10" stroke-width="0.5"/>
    <path id="Shape-2" data-name="Shape" d="M5.287,10.067h0L1.013,5.84A3.4,3.4,0,0,1,1.013,1,3.5,3.5,0,0,1,5.319.534,3.5,3.5,0,0,1,9.624,1a3.394,3.394,0,0,1,0,4.84L5.352,10.066l-.032-.032-.033.033Zm.031-2.5h0l.034.034,3.029-3a1.67,1.67,0,0,0,0-2.381,1.717,1.717,0,0,0-2.407,0l-.657.65-.655-.651a1.717,1.717,0,0,0-2.4,0,1.67,1.67,0,0,0,0,2.381L5.284,7.6l.033-.033Z" transform="translate(9.516 0.321)" fill="#000000" stroke="#000000" stroke-miterlimit="10" stroke-width="0.5"/>
  </g>
</svg>
