<?xml version="1.0" encoding="utf-8"?>
<!-- Generator: Adobe Illustrator 24.0.0, SVG Export Plug-In . SVG Version: 6.00 Build 0)  -->
<svg version="1.1" id="Layer_1" xmlns="http://www.w3.org/2000/svg" xmlns:xlink="http://www.w3.org/1999/xlink" x="0px" y="0px"
	 viewBox="0 0 30.2 29.9" style="enable-background:new 0 0 30.2 29.9;" xml:space="preserve">
<style type="text/css">
	.st0{fill:none;}
	.st1{fill:#FFFFFF;stroke:#FFFFFF;stroke-width:0.5;stroke-miterlimit:10;}
</style>
<g id="icon" transform="translate(0.257 -0.071)">
	<path id="Path" class="st0" d="M1.9,25.2c0.1,0.1,0.2,0.2,0.4,0.2h7.9c0.7-1,1.8-1.8,3-2.2c-1-0.6-1.7-1.8-1.7-3
		c-3.4-1.6-7.5-0.2-9.2,3.3c-0.2,0.4-0.4,0.9-0.5,1.4C1.7,24.9,1.8,25.1,1.9,25.2z"/>
	<path id="Path-2" class="st0" d="M14.9,7.9l3-3c0.7-0.6,0.7-1.7,0-2.4c0,0,0,0,0,0c-0.7-0.7-1.7-0.7-2.4,0l-0.7,0.6l-0.7-0.6
		c-0.7-0.7-1.7-0.7-2.4,0c-0.7,0.6-0.7,1.7,0,2.4c0,0,0,0,0,0L14.9,7.9L14.9,7.9L14.9,7.9z"/>
	<path id="Path-3" class="st0" d="M15.1,22c1,0,1.9-0.8,1.9-1.9c0-1-0.9-1.9-1.9-1.9c-1,0-1.9,0.9-1.9,1.9C13.2,21.1,14,22,15.1,22z
		"/>
	<path id="Path-4" class="st0" d="M11.9,13.4c0-1.9-1.5-3.4-3.4-3.4s-3.4,1.5-3.4,3.4s1.5,3.4,3.4,3.4S11.9,15.2,11.9,13.4z"/>
	<path id="Path-5" class="st0" d="M20.1,25.4h7.3c0.2,0,0.3-0.1,0.4-0.2c0.1-0.1,0.1-0.3,0.1-0.5c-0.9-3.4-4.4-5.5-7.8-4.6
		c-0.5,0.1-1,0.3-1.4,0.6c-0.2,1-0.8,1.9-1.6,2.4C18.3,23.5,19.3,24.3,20.1,25.4z"/>
	<path id="Path-6" class="st0" d="M21.7,17.3c1.7,0,3.1-1.4,3.1-3.1c0-1.7-1.4-3.1-3.1-3.1c-1.7,0-3.1,1.4-3.1,3.1
		C18.6,15.9,20,17.3,21.7,17.3z"/>
	<path id="Path-7" class="st0" d="M15.1,24.5c-2,0-3.8,1.4-4.2,3.4h8.5C18.9,26,17.1,24.5,15.1,24.5z"/>
	<path id="Shape" class="st1" d="M19.6,29.7h-9c-0.5,0-0.9-0.2-1.2-0.5c-0.3-0.3-0.4-0.8-0.4-1.2c0-0.3,0.1-0.5,0.2-0.8h-7
		c-0.7,0-1.3-0.3-1.8-0.8c-0.4-0.5-0.6-1.2-0.4-1.9c0.4-1.5,1.1-3,2.2-4.1c1.1-1.1,2.5-1.9,4-2.3c-1.8-0.8-3-2.6-3-4.6
		c0-2.8,2.3-5.2,5.2-5.2c2.8,0,5.2,2.3,5.2,5.2c0,2-1.2,3.8-3,4.6c0.4,0.1,0.8,0.2,1.2,0.4c1-1.8,3.2-2.5,5-1.5
		c0.8,0.4,1.4,1.1,1.7,2c0.3-0.1,0.6-0.2,1-0.3c-1.6-0.8-2.7-2.5-2.7-4.3c0-2.7,2.3-4.8,4.9-4.8c2.6,0,4.8,2.2,4.8,4.8
		c0,1.8-1,3.5-2.7,4.3c2.8,0.8,5,3,5.7,5.8c0.3,1.2-0.4,2.4-1.6,2.7c-0.2,0-0.4,0.1-0.6,0.1h-6.5c0.1,0.3,0.1,0.5,0.2,0.8
		c0.1,0.4-0.1,0.9-0.4,1.2C20.5,29.5,20,29.7,19.6,29.7z M15.1,24.5c-2,0-3.8,1.4-4.2,3.4h8.5C18.9,25.9,17.1,24.5,15.1,24.5
		L15.1,24.5z M21.7,19.9c-1.1,0-2.1,0.3-3,0.8c-0.2,1-0.8,1.9-1.6,2.4c1.2,0.4,2.3,1.2,3,2.2h7.3c0.2,0,0.3-0.1,0.4-0.2
		c0.1-0.1,0.1-0.3,0.1-0.5C27.2,21.9,24.6,19.9,21.7,19.9L21.7,19.9z M8.5,19.4c-3.2,0-6,2.2-6.7,5.3c-0.1,0.3,0.1,0.5,0.4,0.6
		c0,0,0.1,0,0.1,0h7.9c0.7-1,1.8-1.8,3-2.2c-1-0.6-1.7-1.8-1.7-3C10.5,19.7,9.5,19.4,8.5,19.4L8.5,19.4z M15.1,18.2
		c-1,0-1.9,0.9-1.9,1.9c0,1,0.9,1.9,1.9,1.9c1,0,1.9-0.9,1.9-1.9C17,19,16.1,18.2,15.1,18.2L15.1,18.2z M21.7,11.1
		c-1.7,0-3.1,1.4-3.1,3.1s1.4,3.1,3.1,3.1c1.7,0,3.1-1.4,3.1-3.1C24.8,12.5,23.4,11.1,21.7,11.1L21.7,11.1z M8.5,10
		c-1.9,0-3.3,1.5-3.3,3.4s1.5,3.3,3.4,3.3c1.8,0,3.3-1.5,3.3-3.4C11.9,11.5,10.3,10,8.5,10z"/>
	<path id="Shape-2" class="st1" d="M14.8,10.4L14.8,10.4l-4.3-4.2c-1.3-1.3-1.4-3.5,0-4.8c0,0,0,0,0,0c1.2-1.1,2.9-1.3,4.3-0.5
		C16.2,0,18,0.2,19.1,1.3c1.3,1.3,1.4,3.5,0,4.8c0,0,0,0,0,0L14.8,10.4L14.8,10.4L14.8,10.4z M14.8,7.9L14.8,7.9L14.8,7.9l3.1-3
		c0.7-0.6,0.7-1.7,0-2.4c0,0,0,0,0,0c-0.7-0.7-1.7-0.7-2.4,0l-0.7,0.7l-0.7-0.7c-0.7-0.7-1.7-0.7-2.4,0c-0.7,0.6-0.7,1.7,0,2.4
		c0,0,0,0,0,0L14.8,7.9L14.8,7.9L14.8,7.9z"/>
</g>
</svg>
