<svg width="18" height="20" viewBox="0 0 18 20" fill="none" xmlns="http://www.w3.org/2000/svg">
<path d="M17.341 2.63473H14.377V0.658673C14.3759 0.29533 14.0816 0.00104463 13.7183 0H5.15542C4.79208 0.00104463 4.49779 0.29533 4.49675 0.658673V2.63473H1.5327C1.16935 2.63581 0.875068 2.93006 0.874023 3.2934V10.8682C0.874023 11.0501 1.02146 11.1976 1.20338 11.1976C1.38526 11.1976 1.53273 11.0501 1.53273 10.8682V8.56283H2.19141V4.28143C2.19197 4.09978 2.33907 3.95264 2.52076 3.95208H4.49682V17.455H2.85004C2.85004 17.2731 2.7026 17.1257 2.52069 17.1257H1.86205C1.68018 17.1257 1.5327 17.2731 1.5327 17.455V18.7724C1.5327 18.9542 1.68014 19.1017 1.86205 19.1017H2.52073C2.7026 19.1017 2.85008 18.9543 2.85008 18.7724H16.0237C16.0237 18.9542 16.1711 19.1017 16.353 19.1017H17.0117C17.1936 19.1017 17.341 18.9543 17.341 18.7724V17.455C17.341 17.2731 17.1936 17.1257 17.0117 17.1257H16.353C16.1711 17.1257 16.0237 17.2731 16.0237 17.455H14.377V3.95208H16.353C16.5347 3.95264 16.6818 4.09974 16.6824 4.28143V8.56287H17.341V10.8682C17.341 11.0501 17.4885 11.1976 17.6704 11.1976C17.8523 11.1976 17.9998 11.0502 17.9998 10.8682V3.2934C17.9986 2.93006 17.7044 2.63578 17.341 2.63473ZM5.81413 1.31735H7.13148V2.63469H5.81413V1.31735ZM5.81413 8.89218H8.11951V9.88021H5.81413V8.89218ZM5.81413 10.5389H8.11951V11.5269H5.81413V10.5389ZM8.44882 14.491H8.11947C7.93759 14.491 7.79011 14.6384 7.79011 14.8203V15.479C7.79011 15.6609 7.93755 15.8083 8.11947 15.8083H8.44882V17.4551H5.81409V12.1856H8.11947C8.12059 12.4196 8.24602 12.6354 8.44882 12.7522V14.491ZM8.11951 7.5748V8.23347H5.81413V3.95208H7.13148C7.13256 4.31542 7.42681 4.60971 7.79015 4.61075H9.1075V6.91613H8.77814C8.41484 6.91721 8.12055 7.21149 8.11951 7.5748ZM9.76621 17.455H9.10753V15.8083H9.76621V17.455ZM9.76621 14.491H9.10753V12.8443H9.76621V14.491ZM13.0596 17.455H10.4248V15.8083H10.7542C10.9361 15.8083 11.0836 15.6609 11.0836 15.479V14.8203C11.0836 14.6384 10.9361 14.4909 10.7542 14.4909H10.4248V12.7522C10.6277 12.6354 10.753 12.4196 10.7542 12.1856H13.0596V17.455ZM13.0596 11.5269H10.7542V10.5389H13.0596V11.5269ZM13.0596 9.88021H10.7542V8.89218H13.0596V9.88021ZM13.0596 8.23351H10.7542V7.57484C10.7531 7.21149 10.4589 6.91721 10.0955 6.91616H9.76617V4.61079H11.0835C11.4469 4.60971 11.7411 4.31546 11.7422 3.95212H13.0595V8.23351H13.0596ZM13.0596 2.63473H11.7422V1.31735H13.0596V2.63473Z" fill="black"/>
</svg>
