<?xml version="1.0" encoding="utf-8"?>
<!-- Generator: Adobe Illustrator 24.0.0, SVG Export Plug-In . SVG Version: 6.00 Build 0)  -->
<svg version="1.1" id="Layer_1" xmlns="http://www.w3.org/2000/svg" xmlns:xlink="http://www.w3.org/1999/xlink" x="0px" y="0px"
	 viewBox="0 0 30.5 30.4" style="enable-background:new 0 0 30.5 30.4;" xml:space="preserve">
<style type="text/css">
	.st0{fill:#FFFFFF;stroke:#FFFFFF;stroke-width:0.5;stroke-miterlimit:10;}
	.st1{fill:#FFFFFF;}
</style>
<g id="icon" transform="translate(0.25 0.25)">
	<path id="Shape" class="st0" d="M5.5,12C3.6,12,2,10.4,2,8.5S3.6,5,5.5,5S9,6.6,9,8.5S7.4,12,5.5,12z M5.5,6.9
		c-0.9,0-1.6,0.7-1.6,1.6s0.7,1.6,1.6,1.6c0.9,0,1.6-0.7,1.6-1.6C7.1,7.6,6.4,6.9,5.5,6.9L5.5,6.9z"/>
	<path id="Shape-2" class="st0" d="M26.3,24.3c-0.4,0-0.7-0.3-0.8-0.7l-0.5-2.5h-7.9l-0.5,2.5c-0.1,0.4-0.4,0.7-0.8,0.7
		c-0.1,0-0.1,0-0.2,0c-0.4-0.1-0.7-0.5-0.6-1l2.2-10.4h-2.7c-1.4,0-2.5-1.1-2.5-2.5V2.5C12,1.1,13.1,0,14.5,0h13
		C28.9,0,30,1.1,30,2.5v7.9c0,1.4-1.1,2.5-2.5,2.5h-2.7l2.3,10.4c0.1,0.4-0.2,0.9-0.6,1c0,0,0,0,0,0C26.4,24.3,26.3,24.3,26.3,24.3z
		 M18.8,12.9l-1.4,6.6h7.1l-1.4-6.6H18.8z M14.5,1.7c-0.5,0-0.8,0.4-0.8,0.8v7.9c0,0.5,0.4,0.8,0.8,0.8h13c0.5,0,0.8-0.4,0.8-0.8
		V2.5c0-0.5-0.4-0.8-0.8-0.8L14.5,1.7z"/>
	<path id="Path" class="st1" d="M25.8,7.4h-5.4c-0.5,0-0.8,0.4-0.8,0.8c0,0.5,0.4,0.8,0.8,0.8h5.4c0.5,0,0.8-0.4,0.8-0.8
		C26.7,7.8,26.3,7.4,25.8,7.4z"/>
	<path id="Path-2" class="st1" d="M25.8,3.8h-8.3c-0.5,0-0.8,0.4-0.8,0.8s0.4,0.8,0.8,0.8h8.4c0.5,0,0.8-0.4,0.8-0.8
		C26.7,4.2,26.3,3.8,25.8,3.8C25.8,3.8,25.8,3.8,25.8,3.8z"/>
	<path id="Shape-3" class="st0" d="M8.8,29.9H2.3c-0.5,0-0.8-0.4-0.8-0.8v-6.6C0.6,22.1,0,21.2,0,20.3v-5.7C0,12.6,1.6,11,3.5,11
		c0.3,0,0.6,0.2,0.7,0.5l1.3,2.7l1.3-2.7C7,11.2,7.3,11,7.7,11c1.9,0,3.5,1.6,3.5,3.5v5.7c0,1-0.6,1.9-1.5,2.3v6.6
		C9.7,29.6,9.3,29.9,8.8,29.9z M5.6,23.3c0.5,0,0.8,0.4,0.8,0.8v4.1H8v-5.5H3.2v5.5h1.6v-4.1C4.7,23.7,5.1,23.3,5.6,23.3z M3,12.8
		c-0.8,0.2-1.3,0.9-1.3,1.8v5.7c0,0.5,0.4,0.8,0.8,0.8h6.2c0.5,0,0.8-0.4,0.8-0.8c0,0,0,0,0,0v-5.7c0-0.8-0.6-1.6-1.4-1.8l-1.8,3.7
		c-0.2,0.4-0.7,0.6-1.1,0.4c-0.2-0.1-0.3-0.2-0.4-0.4L3,12.8z"/>
</g>
</svg>
