<?xml version="1.0" encoding="utf-8"?>
<!-- Generator: Adobe Illustrator 24.0.0, SVG Export Plug-In . SVG Version: 6.00 Build 0)  -->
<svg version="1.1" id="Layer_1" xmlns="http://www.w3.org/2000/svg" xmlns:xlink="http://www.w3.org/1999/xlink" x="0px" y="0px"
	 viewBox="0 0 36 36" style="enable-background:new 0 0 36 36;" xml:space="preserve">
<style type="text/css">
	.st0{fill:#FFFFFF;}
</style>
<g>
	<path class="st0" d="M21.1,18c0,1.7-1.4,3.1-3.1,3.1c-1.7,0-3.1-1.4-3.1-3.1c0-1.7,1.4-3.1,3.1-3.1C19.7,14.9,21.1,16.3,21.1,18z"
		/>
	<path class="st0" d="M23.4,8.4H12.6c-2.3,0-4.2,1.9-4.2,4.2v10.7c0,2.3,1.9,4.2,4.2,4.2h10.7c2.3,0,4.2-1.9,4.2-4.2V12.6
		C27.6,10.3,25.7,8.4,23.4,8.4z M18,23.3c-2.9,0-5.3-2.4-5.3-5.3c0-2.9,2.4-5.3,5.3-5.3s5.3,2.4,5.3,5.3
		C23.3,20.9,20.9,23.3,18,23.3z M24.1,13c-0.6,0-1.1-0.5-1.1-1.1c0-0.6,0.5-1.1,1.1-1.1c0.6,0,1.1,0.5,1.1,1.1
		C25.1,12.5,24.7,13,24.1,13z"/>
	<path class="st0" d="M26.5,0h-17C4.3,0,0,4.3,0,9.5v17C0,31.7,4.3,36,9.5,36h17c5.2,0,9.5-4.3,9.5-9.5v-17C36,4.3,31.7,0,26.5,0z
		 M29.7,23.3c0,3.5-2.8,6.3-6.3,6.3H12.7c-3.5,0-6.3-2.8-6.3-6.3V12.7c0-3.5,2.8-6.3,6.3-6.3h10.7c3.5,0,6.3,2.8,6.3,6.3V23.3z"/>
</g>
</svg>
