<?xml version="1.0" encoding="utf-8"?>
<!-- Generator: Adobe Illustrator 24.0.0, SVG Export Plug-In . SVG Version: 6.00 Build 0)  -->
<svg version="1.1" id="Layer_1" xmlns="http://www.w3.org/2000/svg" xmlns:xlink="http://www.w3.org/1999/xlink" x="0px" y="0px"
	 viewBox="0 0 512 512" style="enable-background:new 0 0 512 512;" xml:space="preserve">
<style type="text/css">
	.st0{fill:#FCFCFC;}
</style>
<path class="st0" d="M437,75C388.7,26.6,324.4,0,256,0S123.3,26.6,75,75S0,187.6,0,256s26.6,132.7,75,181s112.6,75,181,75
	s132.7-26.6,181-75s75-112.6,75-181S485.4,123.3,437,75z M256,472c-119.1,0-216-96.9-216-216S136.9,40,256,40s216,96.9,216,216
	S375.1,472,256,472z M236,80h40v177c0,11-9,20-20,20s-20-9-20-20V80z M134.7,238l-52.4-16.8l12.2-38.1l52.4,16.8L134.7,238z
	 M146.9,312l-52.4,16.8l-12.2-38.1l52.4-16.8L146.9,312z M169.3,101.5l32.2,44.6L169,169.5l-32.2-44.6L169.3,101.5z M428.7,221.2
	L376.3,238L364.1,200l52.4-16.8L428.7,221.2z M374.1,124.9L342,169.5l-32.4-23.4l32.2-44.6L374.1,124.9z M236,377h40v55h-40V377z
	 M169,342.5l32.4,23.4l-32.2,44.6l-32.4-23.4L169,342.5z"/>
</svg>
