<svg xmlns="http://www.w3.org/2000/svg" width="34.5" height="36.5" viewBox="0 0 34.5 36.5">
  <g id="sesion" transform="translate(-1146.75 -307.75)">
    <path id="Path" d="M28.769,11.12a1.125,1.125,0,0,0,.068-.146,1.9,1.9,0,0,0,.06-.2.929.929,0,0,1,.034-.137,1.96,1.96,0,0,0,0-.7A.759.759,0,0,0,28.9,9.8a1.9,1.9,0,0,0-.06-.2c0-.05-.043-.1-.068-.142a1.83,1.83,0,0,0-.085-.165,1.662,1.662,0,0,0-.1-.142c-.034-.046-.051-.078-.081-.114L21.095.576A1.622,1.622,0,0,0,18.688.5a1.925,1.925,0,0,0-.074,2.584L23.325,8.46H1.7A1.769,1.769,0,0,0,0,10.288a1.769,1.769,0,0,0,1.7,1.828H23.325l-4.712,5.375a1.927,1.927,0,0,0-.39,1.78,1.759,1.759,0,0,0,1.241,1.252A1.63,1.63,0,0,0,21.095,20l7.41-8.455c.03-.037.051-.073.081-.11s.073-.1.106-.146.054-.108.077-.165Z" transform="translate(1152.037 315.714)" fill="#5335d4" stroke="#5335d4" stroke-miterlimit="10" stroke-width="0.5"/>
    <path id="Path-2" data-name="Path" d="M5.987,36H12.9a6.173,6.173,0,0,0,5.987-6.344V26.61a1.713,1.713,0,1,0-3.421,0v3.059A2.646,2.646,0,0,1,12.9,32.388H5.987a2.646,2.646,0,0,1-2.566-2.719V6.344A2.646,2.646,0,0,1,5.987,3.625H12.9a2.646,2.646,0,0,1,2.566,2.719V9.39a1.713,1.713,0,1,0,3.421,0V6.344A6.173,6.173,0,0,0,12.9,0H5.987A6.173,6.173,0,0,0,0,6.344V29.656A6.173,6.173,0,0,0,5.987,36Z" transform="translate(1147 308)" fill="#5335d4" stroke="#5335d4" stroke-miterlimit="10" stroke-width="0.5"/>
  </g>
</svg>
