<svg xmlns="http://www.w3.org/2000/svg" width="20" height="20" viewBox="0 0 20 20">
  <path id="Combined_Shape" data-name="Combined Shape" d="M9.988,20A10.785,10.785,0,0,1,8.4,19.865a9.776,9.776,0,0,1-2.885-.936,10.1,10.1,0,0,1-4.235-4.054,9.908,9.908,0,0,1-1.217-5.9,10.718,10.718,0,0,1,.3-1.627A10.472,10.472,0,0,1,.925,5.817,9.888,9.888,0,0,1,2.557,3.338,10.046,10.046,0,0,1,4.833,1.447,9.909,9.909,0,0,1,10.671.026,9.758,9.758,0,0,1,13.649.7a10.756,10.756,0,0,1,1.458.712,10.844,10.844,0,0,1,1.3.929,9.947,9.947,0,0,1,3.588,7.989,9.787,9.787,0,0,1-.574,3.014A9.9,9.9,0,0,1,18,15.965a10.833,10.833,0,0,1-1.048,1.2,10.683,10.683,0,0,1-1.241,1.022A9.9,9.9,0,0,1,10,20h-.01ZM10,17.955a9.017,9.017,0,0,0,1.035-.059,9.049,9.049,0,0,0,2.007-.541,9.037,9.037,0,0,0,1.8-1.049A9.264,9.264,0,0,0,16.31,14.84a9.055,9.055,0,0,0,1.047-1.8,9.088,9.088,0,0,0,.537-1.976,9.128,9.128,0,0,0,0-2.131,9.076,9.076,0,0,0-.54-1.983,9.078,9.078,0,0,0-1.037-1.784,9.233,9.233,0,0,0-1.478-1.479,9.036,9.036,0,0,0-1.8-1.046A9.089,9.089,0,0,0,11.064,2.1a9.135,9.135,0,0,0-2.128,0,9.076,9.076,0,0,0-1.986.54A9.078,9.078,0,0,0,5.166,3.68,9.2,9.2,0,0,0,3.679,5.168,9.115,9.115,0,0,0,2.654,6.927a9.038,9.038,0,0,0-.548,2,9.128,9.128,0,0,0,0,2.139,9.05,9.05,0,0,0,.544,1.992A9.092,9.092,0,0,0,3.7,14.848a9.206,9.206,0,0,0,1.475,1.47,9.078,9.078,0,0,0,1.78,1.034A9.036,9.036,0,0,0,8.97,17.9,8.983,8.983,0,0,0,10,17.955Zm-.92-.043ZM7.06,17.4ZM13.1,17.33l.081-.033ZM5.26,16.389ZM3.767,14.943ZM2.7,13.181Zm-.579-1.99ZM17.915,9.076ZM17.4,7.058Zm-.071-.169L17.3,6.815Zm-.939-1.631ZM3.722,5.112l.046-.06Zm12.555,0-.045-.06ZM14.944,3.766ZM13.182,2.7Zm-6.366,0,.053-.022Zm4.376-.579ZM8.554,14.843a2.715,2.715,0,0,1-.48-.436q-.6-.609-1.193-1.216L5.3,11.578a1.112,1.112,0,0,1-.3-.74,1.064,1.064,0,0,1,.3-.739,1.032,1.032,0,0,1,.725-.305,1.045,1.045,0,0,1,.725.305l.668.68,1.043,1.064.673.686.059-.06,1.434-1.463,1.67-1.7,1.383-1.41.575-.587A1.06,1.06,0,0,1,14.975,7a1.02,1.02,0,0,1,.725.305,1.062,1.062,0,0,1,0,1.479l-.023.022c-.5.523-1.014,1.034-1.52,1.551l-2.525,2.573L9.986,14.611c-.017.017-.031.033-.048.049a1.17,1.17,0,0,1-.82.341A1.087,1.087,0,0,1,8.554,14.843ZM9.8,13.2Z" fill="#35d46b"/>
</svg>
