<svg xmlns="http://www.w3.org/2000/svg" width="30.5" height="30.5" viewBox="0 0 30.5 30.5">
  <path id="supervisor" d="M23.615,30.5H21.491a1.619,1.619,0,0,1-1.617-1.617.463.463,0,0,0-.31-.424c-.1-.038-.206-.08-.317-.125l-.038-.015-.013-.006-.112-.046a.589.589,0,0,0-.235-.056.391.391,0,0,0-.256.094l-.034.036a1.666,1.666,0,0,1-2.279,0l-1.508-1.507a1.623,1.623,0,0,1-.006-2.286.451.451,0,0,0,.084-.119H13.443a1.811,1.811,0,0,1-1.805-1.812.649.649,0,0,0-.437-.6c-.179-.069-.365-.146-.585-.242a.735.735,0,0,0-.3-.068.6.6,0,0,0-.432.18,1.847,1.847,0,0,1-2.557,0L5.539,20.1a1.8,1.8,0,0,1,0-2.563.647.647,0,0,0,.121-.728c-.08-.176-.173-.382-.252-.6a.635.635,0,0,0-.59-.419A1.82,1.82,0,0,1,3,13.968V11.443A1.813,1.813,0,0,1,4.811,9.632a.65.65,0,0,0,.611-.426,6.475,6.475,0,0,1,.255-.6.648.648,0,0,0-.166-.741L5.5,7.846a1.8,1.8,0,0,1,.037-2.519L7.326,3.533a1.855,1.855,0,0,1,2.552-.006.642.642,0,0,0,.458.187.686.686,0,0,0,.281-.06c.194-.088.388-.169.577-.242a.649.649,0,0,0,.444-.6A1.81,1.81,0,0,1,13.443,1h2.531a1.813,1.813,0,0,1,1.811,1.811.642.642,0,0,0,.428.6c.224.084.419.165.6.247a.668.668,0,0,0,.272.057.631.631,0,0,0,.448-.175.678.678,0,0,1,.058-.05,1.79,1.79,0,0,1,1.23-.47,1.818,1.818,0,0,1,1.281.515L23.884,5.32a1.812,1.812,0,0,1,0,2.566l-.035.032a.651.651,0,0,0-.084.7c.094.193.182.413.249.583a.627.627,0,0,0,.595.432,1.819,1.819,0,0,1,1.823,1.812v1.405a.44.44,0,0,0,.108-.076.666.666,0,0,1,.06-.053,1.6,1.6,0,0,1,1.091-.412,1.627,1.627,0,0,1,1.146.459l1.5,1.5a1.622,1.622,0,0,1,0,2.291l-.034.032a.466.466,0,0,0-.051.479c.067.145.136.312.208.5a.442.442,0,0,0,.41.3A1.628,1.628,0,0,1,32.5,19.491v2.124a1.619,1.619,0,0,1-1.617,1.617.43.43,0,0,0-.407.289c-.071.176-.141.348-.217.517a.489.489,0,0,0-.049.2.432.432,0,0,0,.128.3,1.623,1.623,0,0,1,0,2.292l-1.5,1.5a1.666,1.666,0,0,1-2.283,0,.42.42,0,0,0-.306-.128.5.5,0,0,0-.206.045c-.119.055-.247.106-.358.15l-.133.053a.453.453,0,0,0-.317.416A1.621,1.621,0,0,1,23.615,30.5Zm-4.754-3.466a1.688,1.688,0,0,1,.692.15l.093.038.053.022.041.017c.08.032.162.066.244.1a1.64,1.64,0,0,1,1.07,1.521.44.44,0,0,0,.437.442h2.124a.437.437,0,0,0,.437-.437,1.62,1.62,0,0,1,1.066-1.52l.129-.052c.12-.047.212-.084.3-.126a1.672,1.672,0,0,1,.691-.149,1.6,1.6,0,0,1,1.14.466.44.44,0,0,0,.31.121A.447.447,0,0,0,28,27.5L29.5,26a.441.441,0,0,0,0-.623,1.6,1.6,0,0,1-.474-1.137,1.671,1.671,0,0,1,.154-.689c.06-.134.118-.277.175-.415l.015-.038a1.583,1.583,0,0,1,1.509-1.047.437.437,0,0,0,.437-.436V19.491a.44.44,0,0,0-.437-.443,1.621,1.621,0,0,1-1.526-1.06c-.058-.153-.118-.3-.178-.428a1.646,1.646,0,0,1,.319-1.833.3.3,0,0,1,.035-.032.444.444,0,0,0-.029-.59L28,13.6a.447.447,0,0,0-.618,0,.8.8,0,0,1-.06.053,1.592,1.592,0,0,1-.9.41,1.836,1.836,0,0,1-1.809,1.722.624.624,0,0,0-.238.052l-.007,0-.013.007a5.041,5.041,0,1,1-6.514,6.513l0,.009,0,0,0,.006a.6.6,0,0,0-.051.231,1.836,1.836,0,0,1-1.721,1.816,1.617,1.617,0,0,1-.458.95.443.443,0,0,0,0,.623l1.5,1.5a.461.461,0,0,0,.588.025l.01-.01.02-.021A1.591,1.591,0,0,1,18.861,27.034Zm.242-5.32a.721.721,0,0,0-.211.032,3.855,3.855,0,1,0,4.849-4.852.728.728,0,0,0-.032.2.622.622,0,0,0,.175.439,1.815,1.815,0,0,1,0,2.563L22.1,21.884a1.819,1.819,0,0,1-1.282.515,1.79,1.79,0,0,1-1.221-.463.545.545,0,0,1-.063-.055A.6.6,0,0,0,19.1,21.714Zm-8.787-1.191h0a1.893,1.893,0,0,1,.777.169c.178.078.355.151.526.218a1.808,1.808,0,0,1,1.2,1.7.632.632,0,0,0,.626.637h2.531a.632.632,0,0,0,.632-.631,1.8,1.8,0,0,1,1.2-1.7l.01,0c.039-.015.074-.031.106-.047s.038-.017.061-.026c.106-.039.228-.085.337-.138a1.863,1.863,0,0,1,.778-.169A1.783,1.783,0,0,1,20.317,21a.6.6,0,0,1,.057.05.64.64,0,0,0,.889,0l1.787-1.787a.633.633,0,0,0,0-.9,1.84,1.84,0,0,1-.356-2.044c.026-.057.051-.115.076-.174.331-.759.673-1.544,1.842-1.544a.638.638,0,0,0,.637-.637V11.443a.632.632,0,0,0-.632-.632,1.8,1.8,0,0,1-1.71-1.2c-.063-.162-.133-.334-.214-.5a1.834,1.834,0,0,1,.351-2.067.438.438,0,0,1,.04-.036.632.632,0,0,0-.035-.858L21.262,4.367a.634.634,0,0,0-.445-.18.621.621,0,0,0-.444.18.471.471,0,0,1-.058.051,1.8,1.8,0,0,1-1.235.475,1.847,1.847,0,0,1-.764-.163c-.153-.071-.318-.14-.52-.216a1.813,1.813,0,0,1-1.191-1.7.64.64,0,0,0-.632-.631H13.443a.629.629,0,0,0-.626.631,1.814,1.814,0,0,1-1.2,1.7c-.17.066-.342.138-.513.215a1.856,1.856,0,0,1-2.052-.363.649.649,0,0,0-.894.006L6.367,6.16a.629.629,0,0,0-.186.448.617.617,0,0,0,.183.438,1.825,1.825,0,0,1,.378,2.066c-.083.166-.143.32-.2.469l0,.011-.01.026a1.839,1.839,0,0,1-1.7,1.193.638.638,0,0,0-.643.632v2.524a.635.635,0,0,0,.631.637,1.823,1.823,0,0,1,1.7,1.2c.068.184.146.359.216.513l0,.008a1.817,1.817,0,0,1-.361,2.046.628.628,0,0,0-.189.453.615.615,0,0,0,.182.436L8.16,21.05a.64.64,0,0,0,.889,0A1.781,1.781,0,0,1,10.316,20.524Zm4.4-1a6.805,6.805,0,1,1,6.8-6.805,6.82,6.82,0,0,1-6.8,6.805Zm0-4.684a5.414,5.414,0,0,0-4.044,1.78,5.6,5.6,0,0,0,8.087,0A5.416,5.416,0,0,0,14.715,14.838Zm0-6.645a2.924,2.924,0,0,1,1.216,5.586,6.583,6.583,0,0,1,3.56,1.9,5.525,5.525,0,0,0,.845-2.96,5.625,5.625,0,1,0-10.4,2.96,6.579,6.579,0,0,1,3.564-1.9,2.924,2.924,0,0,1,1.219-5.585Zm0,1.176a1.754,1.754,0,1,0,1.747,1.754A1.753,1.753,0,0,0,14.715,9.369Z" transform="translate(-2.5 -0.5)" fill="#5234d4" stroke="#5234d4" stroke-width="1"/>
</svg>
