<?xml version="1.0" encoding="utf-8"?>
<!-- Generator: Adobe Illustrator 24.0.0, SVG Export Plug-In . SVG Version: 6.00 Build 0)  -->
<svg version="1.1" id="Layer_1" xmlns="http://www.w3.org/2000/svg" xmlns:xlink="http://www.w3.org/1999/xlink" x="0px" y="0px"
	 viewBox="0 0 37 36" style="enable-background:new 0 0 37 36;" xml:space="preserve">
<style type="text/css">
	.st0{fill:#FFFFFF;}
</style>
<g>
	<path class="st0" d="M27.2,0.5H9.5c-4.9,0-8.9,4-8.9,8.9V27c0,4.9,4,8.8,8.9,8.8h17.7c4.9,0,8.9-4,8.9-8.9V9.4
		C36,4.5,32,0.5,27.2,0.5z M27.1,13.8c0,0.2,0,0.4,0,0.6c0,5.9-4.6,12.7-12.9,12.7c-2.6,0-4.9-0.7-6.9-2c0.4,0,0.7,0.1,1.1,0.1
		c2.1,0,4.1-0.7,5.6-1.9c-2,0-3.7-1.3-4.2-3.1c0.3,0.1,0.6,0.1,0.8,0.1c0.4,0,0.8-0.1,1.2-0.2c-2-0.4-3.6-2.2-3.6-4.4v-0.1
		c0.6,0.3,1.3,0.5,2,0.6c-1.2-0.8-2-2.2-2-3.7c0-0.8,0.2-1.6,0.6-2.2c2.2,2.7,5.6,4.5,9.3,4.7c-0.1-0.3-0.1-0.7-0.1-1
		c0-2.5,2-4.5,4.5-4.5c1.3,0,2.5,0.5,3.3,1.4c1-0.2,2-0.6,2.9-1.1c-0.3,1-1.1,1.9-2,2.5c0.9-0.1,1.8-0.3,2.6-0.7
		C28.8,12.4,28,13.1,27.1,13.8z"/>
</g>
</svg>
