<svg xmlns="http://www.w3.org/2000/svg" width="37.349" height="37.349" viewBox="0 0 37.349 37.349">
  <g id="whatsapp" transform="translate(0)">
    <path id="Path_1" data-name="Path 1" d="M143.365,124.469a9.291,9.291,0,0,0-7.874,14.229l.221.351-.939,3.427,3.516-.922.339.2a9.275,9.275,0,0,0,4.728,1.295h0a9.29,9.29,0,0,0,0-18.581Zm5.464,13.279a2.878,2.878,0,0,1-1.885,1.328,3.833,3.833,0,0,1-1.759-.111,16.129,16.129,0,0,1-1.592-.588,12.448,12.448,0,0,1-4.771-4.216,5.43,5.43,0,0,1-1.14-2.888,3.13,3.13,0,0,1,.977-2.329,1.027,1.027,0,0,1,.745-.349c.186,0,.372,0,.535.01s.4-.065.628.479.791,1.933.861,2.073a.515.515,0,0,1,.023.489,10.1,10.1,0,0,1-.7.955c-.123.154-.286.29-.123.57a8.418,8.418,0,0,0,1.554,1.934,7.634,7.634,0,0,0,2.246,1.386c.279.14.442.116.6-.07s.7-.815.884-1.095.372-.233.628-.14,1.629.769,1.908.908.465.21.535.326a2.329,2.329,0,0,1-.163,1.328Zm0,0" transform="translate(-124.291 -115.389)"/>
    <path id="Path_2" data-name="Path 2" d="M34.656,0H2.694A2.694,2.694,0,0,0,0,2.694V34.656a2.694,2.694,0,0,0,2.694,2.694H34.656a2.694,2.694,0,0,0,2.694-2.694V2.694A2.694,2.694,0,0,0,34.656,0ZM19.071,29.548h0a11.173,11.173,0,0,1-5.341-1.36L7.8,29.741l1.586-5.79a11.178,11.178,0,1,1,9.685,5.6Zm0,0"/>
  </g>
</svg>
