<svg width="16" height="17" viewBox="0 0 16 17" fill="none" xmlns="http://www.w3.org/2000/svg">
<path d="M4.13003 4.2014C3.84233 4.2014 3.60913 3.9682 3.60913 3.68051V0.520899C3.60913 0.2332 3.84233 0 4.13003 0C4.41773 0 4.65093 0.2332 4.65093 0.520899V3.68051C4.65093 3.9682 4.41773 4.2014 4.13003 4.2014Z" fill="white"/>
<path d="M10.9262 4.2014C10.6385 4.2014 10.4053 3.9682 10.4053 3.68051V0.520899C10.4053 0.2332 10.6385 0 10.9262 0C11.2139 0 11.4471 0.2332 11.4471 0.520899V3.68051C11.4471 3.9682 11.2139 4.2014 10.9262 4.2014Z" fill="white"/>
<path d="M0 7.22656V14.4139C0 15.6391 0.996772 16.6359 2.22199 16.6359H12.8342C14.0594 16.6359 15.0561 15.6391 15.0561 14.4139V7.22656H0Z" fill="white"/>
<path d="M15.0561 6.18515V3.8021C15.0561 2.57688 14.0593 1.58011 12.8341 1.58011H12.4888V3.6808C12.4888 4.54249 11.7878 5.24349 10.9261 5.24349C10.0644 5.24349 9.36345 4.54249 9.36345 3.6808V1.58008H5.69271V3.68076C5.69271 4.54246 4.99171 5.24346 4.13001 5.24346C3.26831 5.24346 2.56731 4.54246 2.56731 3.68076V1.58008H2.22199C0.996772 1.58008 0 2.57685 0 3.80207V6.18511H15.0561V6.18515Z" fill="white"/>
</svg>
