<svg width="20" height="20" viewBox="0 0 20 20" fill="none" xmlns="http://www.w3.org/2000/svg">
<path d="M12.0135 12.3946C11.5712 12.3946 11.2126 12.7518 11.2126 13.1926V17.9809H1.60181V2.01994H11.2126V6.80823C11.2126 7.24897 11.5712 7.60626 12.0135 7.60626C12.4558 7.60626 12.8144 7.24897 12.8144 6.80823V1.22186C12.8144 0.781117 12.4558 0.423828 12.0135 0.423828H0.800886C0.358565 0.423828 0 0.781117 0 1.22186V18.7789C0 19.2197 0.358565 19.577 0.800886 19.577H12.0135C12.4558 19.577 12.8144 19.2197 12.8144 18.7789V13.1926C12.8144 12.7518 12.4558 12.3946 12.0135 12.3946Z" fill="white"/>
<path d="M19.0402 10.5057C19.0478 10.4964 19.0544 10.4867 19.0616 10.4771C19.0701 10.4658 19.0789 10.4548 19.0868 10.443C19.0945 10.4316 19.1011 10.4198 19.108 10.4081C19.1144 10.3975 19.1211 10.387 19.127 10.3761C19.1334 10.3642 19.1389 10.3519 19.1446 10.3397C19.1501 10.3283 19.1558 10.317 19.1607 10.3053C19.1656 10.2935 19.1695 10.2815 19.1738 10.2695C19.1784 10.2569 19.1832 10.2445 19.1871 10.2316C19.1908 10.2196 19.1934 10.2074 19.1965 10.1953C19.1998 10.1822 19.2035 10.1692 19.2061 10.1559C19.2089 10.1418 19.2106 10.1277 19.2126 10.1136C19.2143 10.102 19.2165 10.0905 19.2177 10.0787C19.2229 10.0263 19.2229 9.97354 19.2177 9.92117C19.2165 9.90939 19.2143 9.89794 19.2126 9.88627C19.2106 9.87217 19.209 9.85799 19.2061 9.844C19.2035 9.83061 19.1998 9.81766 19.1965 9.80453C19.1934 9.79241 19.1908 9.78025 19.1871 9.76828C19.1832 9.75541 19.1784 9.74296 19.1738 9.73039C19.1695 9.71842 19.1656 9.70637 19.1607 9.69459C19.1558 9.68284 19.1501 9.67158 19.1446 9.66014C19.1389 9.64798 19.1335 9.63571 19.127 9.62381C19.1211 9.61285 19.1144 9.60241 19.108 9.59175C19.1011 9.58008 19.0944 9.56826 19.0868 9.55689C19.0789 9.5451 19.0701 9.53403 19.0616 9.52273C19.0544 9.51319 19.0478 9.50343 19.0402 9.49415C19.0237 9.47414 19.0063 9.45487 18.9879 9.43654C18.9876 9.43624 18.9874 9.43595 18.9871 9.43568L15.7835 6.2435C15.4708 5.93185 14.9637 5.93185 14.6509 6.2435C14.3381 6.55515 14.3381 7.06047 14.6509 7.37212L16.4873 9.20196H9.61094C9.16862 9.20196 8.81006 9.55924 8.81006 9.99999C8.81006 10.4407 9.16862 10.798 9.61094 10.798H16.4873L14.6509 12.6279C14.3381 12.9395 14.3381 13.4448 14.6509 13.7565C14.9637 14.0681 15.4708 14.0681 15.7835 13.7565L18.9871 10.5643C18.9874 10.564 18.9876 10.5637 18.9879 10.5634C19.0063 10.545 19.0237 10.5257 19.0402 10.5057Z" fill="white"/>
</svg>
