<svg width="21" height="19" viewBox="0 0 21 19" fill="none" xmlns="http://www.w3.org/2000/svg">
<path d="M18.3869 13.5036L21.0002 10.8904L18.3869 8.27711L18.8079 7.85606C19.5364 7.12755 19.5364 5.94226 18.8081 5.21375C18.4551 4.86095 17.9858 4.6666 17.4868 4.6666C16.9878 4.6666 16.5186 4.86095 16.1658 5.21375L15.7447 5.6348L13.1314 3.02148L12.3603 3.79277V5.01171C13.7244 5.33679 14.7419 6.56582 14.7419 8.02797C14.7419 9.49028 13.7244 10.7193 12.3603 11.0442V14.8239H10.098L9.64697 15.2749L13.1314 18.7592L15.7447 16.1459L16.1076 16.5089C16.8361 17.2375 18.0214 17.2375 18.7499 16.5089C19.4784 15.7804 19.4784 14.5951 18.7499 13.8666L18.3869 13.5036Z" fill="white"/>
<path d="M11.1283 13.5921V9.89634H11.6414C12.6718 9.89634 13.5099 9.05824 13.5099 8.02788C13.5099 6.99768 12.6718 6.15958 11.6414 6.15958H11.1283V2.46383H7.43251V1.86846C7.43251 0.8381 6.59441 0 5.56405 0C4.53385 0 3.69575 0.8381 3.69575 1.86846V2.46383H0V6.15958H0.513338C1.41729 6.15958 2.1732 6.80477 2.34495 7.6589C2.41945 7.76304 2.46383 7.89025 2.46383 8.02788C2.46383 8.16551 2.41945 8.29272 2.34495 8.39702C2.1732 9.25098 1.41729 9.89634 0.513338 9.89634H0V13.5921H3.69575V12.9966C3.69575 11.9664 4.53385 11.1283 5.56405 11.1283C6.59441 11.1283 7.43251 11.9664 7.43251 12.9966V13.5921H11.1283Z" fill="white"/>
</svg>
