<svg width="21" height="21" viewBox="0 0 21 21" fill="none" xmlns="http://www.w3.org/2000/svg">
<path d="M10.6071 16.5904C11.2659 17.2501 11.2619 18.3113 10.6071 18.9661L9.1255 20.4477C8.47621 21.0986 7.40898 21.1069 6.74982 20.4477L0.550878 14.2488C-0.10383 13.5936 -0.10383 12.5278 0.550878 11.8731L2.03248 10.3915C2.68723 9.73668 3.74849 9.73265 4.40816 10.3915L10.6071 16.5904ZM0.800625 15.8632C0.649064 15.7117 0.397091 15.7395 0.280092 15.9191C-0.184671 16.6325 -0.0413409 17.4924 0.491245 18.025L2.97359 20.5074C3.50156 21.0353 4.36087 21.1872 5.07924 20.7188C5.2589 20.6016 5.28708 20.3497 5.13543 20.198L0.800625 15.8632ZM11.6259 7.08518C11.3634 6.82313 10.938 6.82313 10.6756 7.08518L7.08494 10.6758C6.82247 10.9383 6.82247 11.3637 7.08494 11.6261L9.37243 13.9136C9.63402 14.1752 10.0594 14.1761 10.3228 13.9136L13.9134 10.323C14.1759 10.0606 14.1759 9.63514 13.9134 9.37267L11.6259 7.08518ZM20.1985 5.13483C20.3502 5.28651 20.6022 5.25825 20.7193 5.07851C21.1874 4.35997 21.0337 3.50045 20.5071 2.97383L18.0247 0.491477C17.4935 -0.0394294 16.6341 -0.185741 15.9198 0.279442C15.7402 0.396441 15.7122 0.648456 15.8638 0.800059L20.1985 5.13483ZM14.2485 0.55111C13.5934 -0.103598 12.5276 -0.104018 11.8728 0.55111L10.3912 2.03271C9.73649 2.68742 9.73242 3.74868 10.3912 4.40839L16.5902 10.6073C17.2505 11.2668 18.3118 11.2614 18.9659 10.6073L20.4475 9.12573C21.1022 8.47103 21.1022 7.40518 20.4475 6.75005L14.2485 0.55111Z" fill="white"/>
</svg>
