<svg width="17" height="19" viewBox="0 0 17 19" fill="none" xmlns="http://www.w3.org/2000/svg">
<path fill-rule="evenodd" clip-rule="evenodd" d="M3 3.67188C1.34315 3.67188 0 5.01502 0 6.67187V15.2433C0 16.9002 1.34314 18.2433 3 18.2433H13.1905C14.8473 18.2433 16.1905 16.9002 16.1905 15.2433V12.5765H14.5714C13.6773 12.5765 12.9524 11.8517 12.9524 10.9575C12.9524 10.0633 13.6773 9.33845 14.5714 9.33845H16.1905V6.67188C16.1905 5.01502 14.8473 3.67188 13.1905 3.67188H3Z" fill="white"/>
<rect x="13.762" y="10.1479" width="3.2381" height="1.61905" rx="0.809524" fill="white"/>
<path fill-rule="evenodd" clip-rule="evenodd" d="M4.31689 2.86207H12.865L11.7107 1.25211C10.7452 -0.0943842 8.87099 -0.403281 7.52449 0.562177L4.31689 2.86207Z" fill="white"/>
</svg>
