<svg width="22" height="22" viewBox="0 0 22 22" fill="none" xmlns="http://www.w3.org/2000/svg">
<path d="M10.7042 3.36627C11.0835 1.44746 12.7764 0 14.8068 0C16.4188 0 17.816 0.914783 18.5161 2.25068C20.1922 2.43198 21.5002 3.85154 21.5002 5.57791C21.5002 7.42698 20.0026 8.92465 18.1535 8.92465H10.9023C9.36276 8.92465 8.1133 7.67519 8.1133 6.13569C8.1133 4.66313 9.25956 3.46947 10.7042 3.36627ZM13.6912 5.0201V7.25125H15.9223V5.0201H17.5957L14.8068 2.23117L12.0178 5.02013H13.6912V5.0201Z" fill="white"/>
<path fill-rule="evenodd" clip-rule="evenodd" d="M10.5612 9.736C10.5566 9.73602 10.5519 9.73603 10.5473 9.73603C8.75493 9.73603 7.30195 8.10143 7.30195 6.08504C7.30195 4.93824 7.77193 3.91494 8.50704 3.24561H5C2.23858 3.24561 0 5.48418 0 8.2456V16.0949C0 18.8563 2.23857 21.0949 5 21.0949H12.8493C15.6107 21.0949 17.8493 18.8563 17.8493 16.0949V9.736H10.5612Z" fill="white"/>
<path d="M11.3586 10.4785V15.6453L6.59626 13.0844L11.3586 10.4785Z" fill="black"/>
</svg>
