<?xml version="1.0" standalone="no"?>
<!DOCTYPE svg PUBLIC "-//W3C//DTD SVG 20010904//EN"
 "http://www.w3.org/TR/2001/REC-SVG-20010904/DTD/svg10.dtd">
<svg version="1.0" xmlns="http://www.w3.org/2000/svg"
 width="1119.000000pt" height="1119.000000pt" viewBox="0 0 1119.000000 1119.000000"
 preserveAspectRatio="xMidYMid meet">
<metadata>
Created by potrace 1.11, written by Peter Selinger 2001-2013
</metadata>
<g transform="translate(0.000000,1119.000000) scale(0.100000,-0.100000)"
fill="#000000" stroke="none">
<path d="M1825 11169 c-231 -30 -492 -135 -678 -275 -285 -214 -465 -496 -554
-864 -17 -71 -18 -280 -20 -4400 -3 -4257 -3 -4327 16 -4440 139 -815 957
-1347 1762 -1145 96 24 216 68 291 106 22 11 547 313 1166 671 620 358 1489
860 1932 1116 443 256 1008 582 1255 725 248 142 518 299 600 347 83 48 530
307 995 575 1515 875 1450 836 1588 960 208 188 375 501 427 803 l15 83 -422
731 c-232 401 -429 738 -437 748 -9 11 -290 177 -626 371 -335 194 -938 542
-1340 774 -401 232 -1135 656 -1630 942 -495 286 -1381 798 -1970 1138 -588
340 -1181 683 -1318 761 -241 139 -382 204 -514 238 -163 42 -372 56 -538 35z
m4488 -5092 c864 4 1436 3 1439 -3 2 -5 -859 -870 -1914 -1923 l-1918 -1914 0
1436 0 1437 -1436 2 -1436 3 1914 1919 1913 1919 3 -1441 2 -1442 1433 7z"/>
</g>
</svg>
